<svg xmlns="http://www.w3.org/2000/svg" xmlns:xlink="http://www.w3.org/1999/xlink" version="1.1" width="256" height="256" viewBox="0 0 256 256" xml:space="preserve">

<defs>
</defs>
<g style="stroke: none; stroke-width: 0; stroke-dasharray: none; stroke-linecap: butt; stroke-linejoin: miter; stroke-miterlimit: 10; fill: none; fill-rule: nonzero; opacity: 1;" transform="translate(1.4065934065934016 1.4065934065934016) scale(2.81 2.81)" >
	<path d="M 65.574 80.686 H 16.112 c -1.806 0 -3.271 -1.464 -3.271 -3.271 V 9.188 c 0 -1.806 1.464 -3.271 3.271 -3.271 h 49.461 c 1.806 0 3.271 1.464 3.271 3.271 v 68.227 C 68.844 79.222 67.38 80.686 65.574 80.686 z" style="stroke: none; stroke-width: 1; stroke-dasharray: none; stroke-linecap: butt; stroke-linejoin: miter; stroke-miterlimit: 10; fill: rgb(255,236,143); fill-rule: nonzero; opacity: 1;" transform=" matrix(1 0 0 1 0 0) " stroke-linecap="round" />
	<path d="M 73.888 14.231 h -5.043 v 63.184 c 0 1.806 -1.464 3.271 -3.27 3.271 H 21.156 v 5.043 c 0 1.806 1.464 3.271 3.27 3.271 h 49.462 c 1.806 0 3.27 -1.464 3.27 -3.271 V 17.502 C 77.158 15.696 75.694 14.231 73.888 14.231 z" style="stroke: none; stroke-width: 1; stroke-dasharray: none; stroke-linecap: butt; stroke-linejoin: miter; stroke-miterlimit: 10; fill: rgb(232,204,135); fill-rule: nonzero; opacity: 1;" transform=" matrix(1 0 0 1 0 0) " stroke-linecap="round" />
	<path d="M 65.574 81.687 H 16.112 c -2.355 0 -4.271 -1.916 -4.271 -4.271 V 9.188 c 0 -2.355 1.916 -4.271 4.271 -4.271 h 49.462 c 2.354 0 4.271 1.916 4.271 4.271 v 68.228 C 69.845 79.771 67.929 81.687 65.574 81.687 z M 16.112 6.918 c -1.252 0 -2.271 1.019 -2.271 2.271 v 68.228 c 0 1.252 1.019 2.271 2.271 2.271 h 49.462 c 1.252 0 2.271 -1.019 2.271 -2.271 V 9.188 c 0 -1.252 -1.019 -2.271 -2.271 -2.271 H 16.112 z" style="stroke: none; stroke-width: 1; stroke-dasharray: none; stroke-linecap: butt; stroke-linejoin: miter; stroke-miterlimit: 10; fill: rgb(0,0,0); fill-rule: nonzero; opacity: 1;" transform=" matrix(1 0 0 1 0 0) " stroke-linecap="round" />
	<path d="M 40.843 11.446 c -0.552 0 -1 -0.448 -1 -1 V 1 c 0 -0.552 0.448 -1 1 -1 s 1 0.448 1 1 v 9.446 C 41.843 10.999 41.396 11.446 40.843 11.446 z" style="stroke: none; stroke-width: 1; stroke-dasharray: none; stroke-linecap: butt; stroke-linejoin: miter; stroke-miterlimit: 10; fill: rgb(0,0,0); fill-rule: nonzero; opacity: 1;" transform=" matrix(1 0 0 1 0 0) " stroke-linecap="round" />
	<path d="M 55.221 11.446 c -0.553 0 -1 -0.448 -1 -1 V 1 c 0 -0.552 0.447 -1 1 -1 s 1 0.448 1 1 v 9.446 C 56.221 10.999 55.773 11.446 55.221 11.446 z" style="stroke: none; stroke-width: 1; stroke-dasharray: none; stroke-linecap: butt; stroke-linejoin: miter; stroke-miterlimit: 10; fill: rgb(0,0,0); fill-rule: nonzero; opacity: 1;" transform=" matrix(1 0 0 1 0 0) " stroke-linecap="round" />
	<path d="M 26.465 11.446 c -0.552 0 -1 -0.448 -1 -1 V 1 c 0 -0.552 0.448 -1 1 -1 s 1 0.448 1 1 v 9.446 C 27.465 10.999 27.018 11.446 26.465 11.446 z" style="stroke: none; stroke-width: 1; stroke-dasharray: none; stroke-linecap: butt; stroke-linejoin: miter; stroke-miterlimit: 10; fill: rgb(0,0,0); fill-rule: nonzero; opacity: 1;" transform=" matrix(1 0 0 1 0 0) " stroke-linecap="round" />
	<path d="M 57.835 25.327 H 23.851 c -0.552 0 -1 -0.448 -1 -1 s 0.448 -1 1 -1 h 33.984 c 0.553 0 1 0.448 1 1 S 58.388 25.327 57.835 25.327 z" style="stroke: none; stroke-width: 1; stroke-dasharray: none; stroke-linecap: butt; stroke-linejoin: miter; stroke-miterlimit: 10; fill: rgb(0,0,0); fill-rule: nonzero; opacity: 1;" transform=" matrix(1 0 0 1 0 0) " stroke-linecap="round" />
	<path d="M 57.835 38.398 H 23.851 c -0.552 0 -1 -0.448 -1 -1 s 0.448 -1 1 -1 h 33.984 c 0.553 0 1 0.448 1 1 S 58.388 38.398 57.835 38.398 z" style="stroke: none; stroke-width: 1; stroke-dasharray: none; stroke-linecap: butt; stroke-linejoin: miter; stroke-miterlimit: 10; fill: rgb(0,0,0); fill-rule: nonzero; opacity: 1;" transform=" matrix(1 0 0 1 0 0) " stroke-linecap="round" />
	<path d="M 57.835 51.469 H 23.851 c -0.552 0 -1 -0.447 -1 -1 s 0.448 -1 1 -1 h 33.984 c 0.553 0 1 0.447 1 1 S 58.388 51.469 57.835 51.469 z" style="stroke: none; stroke-width: 1; stroke-dasharray: none; stroke-linecap: butt; stroke-linejoin: miter; stroke-miterlimit: 10; fill: rgb(0,0,0); fill-rule: nonzero; opacity: 1;" transform=" matrix(1 0 0 1 0 0) " stroke-linecap="round" />
	<path d="M 57.835 64.539 H 23.851 c -0.552 0 -1 -0.447 -1 -1 s 0.448 -1 1 -1 h 33.984 c 0.553 0 1 0.447 1 1 S 58.388 64.539 57.835 64.539 z" style="stroke: none; stroke-width: 1; stroke-dasharray: none; stroke-linecap: butt; stroke-linejoin: miter; stroke-miterlimit: 10; fill: rgb(0,0,0); fill-rule: nonzero; opacity: 1;" transform=" matrix(1 0 0 1 0 0) " stroke-linecap="round" />
	<path d="M 73.888 90 H 24.426 c -2.355 0 -4.271 -1.916 -4.271 -4.271 v -5.043 c 0 -0.553 0.448 -1 1 -1 h 44.418 c 1.252 0 2.271 -1.019 2.271 -2.271 V 14.231 c 0 -0.552 0.447 -1 1 -1 h 5.043 c 2.354 0 4.271 1.916 4.271 4.271 v 68.228 C 78.158 88.084 76.242 90 73.888 90 z M 22.156 81.687 v 4.043 c 0 1.252 1.019 2.271 2.271 2.271 h 49.461 c 1.252 0 2.271 -1.019 2.271 -2.271 V 17.502 c 0 -1.252 -1.019 -2.271 -2.271 -2.271 h -4.043 v 62.185 c 0 2.354 -1.916 4.271 -4.271 4.271 H 22.156 z" style="stroke: none; stroke-width: 1; stroke-dasharray: none; stroke-linecap: butt; stroke-linejoin: miter; stroke-miterlimit: 10; fill: rgb(0,0,0); fill-rule: nonzero; opacity: 1;" transform=" matrix(1 0 0 1 0 0) " stroke-linecap="round" />
</g>
</svg>