<svg xmlns="http://www.w3.org/2000/svg" xmlns:xlink="http://www.w3.org/1999/xlink" version="1.1" width="256" height="256" viewBox="0 0 256 256" xml:space="preserve">

<defs>
</defs>
<g style="stroke: none; stroke-width: 0; stroke-dasharray: none; stroke-linecap: butt; stroke-linejoin: miter; stroke-miterlimit: 10; fill: none; fill-rule: nonzero; opacity: 1;" transform="translate(1.4065934065934016 1.4065934065934016) scale(2.81 2.81)" >
	<polygon points="88,83.29 2,83.29 17.59,55.42 39.4,55.42 45,55.42 50.6,55.42 72.42,55.42 " style="stroke: none; stroke-width: 1; stroke-dasharray: none; stroke-linecap: butt; stroke-linejoin: miter; stroke-miterlimit: 10; fill: rgb(14,171,97); fill-rule: nonzero; opacity: 1;" transform="  matrix(1 0 0 1 0 0) "/>
	<polygon points="2,83.29 76.76,63.2 88,83.29 " style="stroke: none; stroke-width: 1; stroke-dasharray: none; stroke-linecap: butt; stroke-linejoin: miter; stroke-miterlimit: 10; fill: rgb(21,155,225); fill-rule: nonzero; opacity: 1;" transform="  matrix(1 0 0 1 0 0) "/>
	<path d="M 1.999 85.294 c -0.882 0 -1.69 -0.589 -1.93 -1.481 c -0.287 -1.067 0.346 -2.164 1.413 -2.451 l 74.762 -20.098 c 1.068 -0.287 2.165 0.346 2.451 1.412 c 0.286 1.067 -0.346 2.164 -1.412 2.451 L 2.519 85.224 C 2.346 85.271 2.171 85.294 1.999 85.294 z" style="stroke: none; stroke-width: 1; stroke-dasharray: none; stroke-linecap: butt; stroke-linejoin: miter; stroke-miterlimit: 10; fill: rgb(254,217,65); fill-rule: nonzero; opacity: 1;" transform=" matrix(1 0 0 1 0 0) " stroke-linecap="round" />
	<path d="M 63.1 79.329 c -0.57 0 -1.137 -0.243 -1.532 -0.714 l -7.166 -8.535 c -0.711 -0.846 -0.601 -2.107 0.245 -2.817 c 0.846 -0.711 2.108 -0.6 2.817 0.245 l 7.166 8.535 c 0.711 0.846 0.601 2.107 -0.245 2.817 C 64.011 79.176 63.555 79.329 63.1 79.329 z" style="stroke: none; stroke-width: 1; stroke-dasharray: none; stroke-linecap: butt; stroke-linejoin: miter; stroke-miterlimit: 10; fill: rgb(254,217,65); fill-rule: nonzero; opacity: 1;" transform=" matrix(1 0 0 1 0 0) " stroke-linecap="round" />
	<path d="M 34.66 76.513 c -0.57 0 -1.137 -0.243 -1.533 -0.714 L 23.31 64.105 c -0.71 -0.846 -0.6 -2.107 0.246 -2.818 c 0.847 -0.709 2.108 -0.599 2.818 0.246 l 9.818 11.694 c 0.71 0.846 0.6 2.107 -0.246 2.818 C 35.57 76.36 35.114 76.513 34.66 76.513 z" style="stroke: none; stroke-width: 1; stroke-dasharray: none; stroke-linecap: butt; stroke-linejoin: miter; stroke-miterlimit: 10; fill: rgb(254,217,65); fill-rule: nonzero; opacity: 1;" transform=" matrix(1 0 0 1 0 0) " stroke-linecap="round" />
	<path d="M 88 85.293 H 2 c -0.709 0 -1.366 -0.376 -1.725 -0.988 c -0.359 -0.612 -0.367 -1.368 -0.021 -1.987 L 15.84 54.444 c 0.354 -0.633 1.021 -1.024 1.746 -1.024 h 54.83 c 0.725 0 1.393 0.392 1.746 1.024 l 15.585 27.873 c 0.346 0.619 0.338 1.375 -0.021 1.987 C 89.366 84.917 88.71 85.293 88 85.293 z M 5.41 81.293 h 79.18 L 71.242 57.42 H 18.758 L 5.41 81.293 z" style="stroke: none; stroke-width: 1; stroke-dasharray: none; stroke-linecap: butt; stroke-linejoin: miter; stroke-miterlimit: 10; fill: rgb(188,220,254); fill-rule: nonzero; opacity: 1;" transform=" matrix(1 0 0 1 0 0) " stroke-linecap="round" />
	<path d="M 42.52 18.239 c -7.702 1.189 -13.385 8.127 -13.166 15.917 c 0.063 2.236 0.589 4.383 1.565 6.387 c 1.72 3.45 7.145 12.622 12.392 21.492 c 0.759 1.285 2.618 1.285 3.377 0 l 0.01 -0.018 c 5.242 -8.863 10.662 -18.026 12.385 -21.484 c 0.006 -0.012 0.012 -0.024 0.018 -0.035 c 1.028 -2.128 1.549 -4.416 1.549 -6.8 C 60.652 24.255 52.244 16.737 42.52 18.239 z" style="stroke: none; stroke-width: 1; stroke-dasharray: none; stroke-linecap: butt; stroke-linejoin: miter; stroke-miterlimit: 10; fill: rgb(203,0,16); fill-rule: nonzero; opacity: 1;" transform=" matrix(1 0 0 1 0 0) " stroke-linecap="round" />
	<circle cx="45.02" cy="33.42" r="6" style="stroke: none; stroke-width: 1; stroke-dasharray: none; stroke-linecap: butt; stroke-linejoin: miter; stroke-miterlimit: 10; fill: rgb(255,255,255); fill-rule: nonzero; opacity: 1;" transform="  matrix(1 0 0 1 0 0) "/>
</g>
</svg>