<svg xmlns="http://www.w3.org/2000/svg" xmlns:xlink="http://www.w3.org/1999/xlink" version="1.1" width="256" height="256" viewBox="0 0 256 256" xml:space="preserve">

<defs>
</defs>
<g style="stroke: none; stroke-width: 0; stroke-dasharray: none; stroke-linecap: butt; stroke-linejoin: miter; stroke-miterlimit: 10; fill: none; fill-rule: nonzero; opacity: 1;" transform="translate(1.4065934065934016 1.4065934065934016) scale(2.81 2.81)" >
	<polygon points="75.19,77.15 6.65,77.15 6.65,18.32 40.92,1 75.19,18.32 " style="stroke: none; stroke-width: 1; stroke-dasharray: none; stroke-linecap: butt; stroke-linejoin: miter; stroke-miterlimit: 10; fill: rgb(203,79,51); fill-rule: nonzero; opacity: 1;" transform="  matrix(1 0 0 1 0 0) "/>
	<rect x="15.26" y="32.1" rx="0" ry="0" width="51.31" height="45.05" style="stroke: none; stroke-width: 1; stroke-dasharray: none; stroke-linecap: butt; stroke-linejoin: miter; stroke-miterlimit: 10; fill: rgb(90,91,98); fill-rule: nonzero; opacity: 1;" transform=" matrix(1 0 0 1 0 0) "/>
	<rect x="28.47" y="19.28" rx="0" ry="0" width="24.9" height="5.91" style="stroke: none; stroke-width: 1; stroke-dasharray: none; stroke-linecap: butt; stroke-linejoin: miter; stroke-miterlimit: 10; fill: rgb(200,202,206); fill-rule: nonzero; opacity: 1;" transform=" matrix(1 0 0 1 0 0) "/>
	<rect x="15.26" y="32.1" rx="0" ry="0" width="51.31" height="7.14" style="stroke: none; stroke-width: 1; stroke-dasharray: none; stroke-linecap: butt; stroke-linejoin: miter; stroke-miterlimit: 10; fill: rgb(200,202,206); fill-rule: nonzero; opacity: 1;" transform=" matrix(1 0 0 1 0 0) "/>
	<path d="M 75.186 78.148 H 6.647 c -0.552 0 -1 -0.447 -1 -1 V 18.323 c 0 -0.377 0.212 -0.722 0.549 -0.893 L 40.465 0.107 c 0.284 -0.144 0.618 -0.144 0.902 0 l 34.27 17.323 c 0.337 0.17 0.549 0.516 0.549 0.893 v 58.826 C 76.186 77.701 75.738 78.148 75.186 78.148 z M 7.647 76.148 h 66.539 v -57.21 L 40.916 2.121 L 7.647 18.938 V 76.148 z" style="stroke: none; stroke-width: 1; stroke-dasharray: none; stroke-linecap: butt; stroke-linejoin: miter; stroke-miterlimit: 10; fill: rgb(0,0,0); fill-rule: nonzero; opacity: 1;" transform=" matrix(1 0 0 1 0 0) " stroke-linecap="round" />
	<path d="M 66.572 78.148 H 15.26 c -0.552 0 -1 -0.447 -1 -1 V 32.097 c 0 -0.552 0.448 -1 1 -1 h 51.312 c 0.553 0 1 0.448 1 1 v 45.052 C 67.572 77.701 67.125 78.148 66.572 78.148 z M 16.26 76.148 h 49.312 V 33.097 H 16.26 V 76.148 z" style="stroke: none; stroke-width: 1; stroke-dasharray: none; stroke-linecap: butt; stroke-linejoin: miter; stroke-miterlimit: 10; fill: rgb(0,0,0); fill-rule: nonzero; opacity: 1;" transform=" matrix(1 0 0 1 0 0) " stroke-linecap="round" />
	<path d="M 53.366 26.191 h -24.9 c -0.552 0 -1 -0.448 -1 -1 v -5.914 c 0 -0.552 0.448 -1 1 -1 h 24.9 c 0.553 0 1 0.448 1 1 v 5.914 C 54.366 25.743 53.919 26.191 53.366 26.191 z M 29.466 24.191 h 22.9 v -3.914 h -22.9 V 24.191 z" style="stroke: none; stroke-width: 1; stroke-dasharray: none; stroke-linecap: butt; stroke-linejoin: miter; stroke-miterlimit: 10; fill: rgb(0,0,0); fill-rule: nonzero; opacity: 1;" transform=" matrix(1 0 0 1 0 0) " stroke-linecap="round" />
	<path d="M 66.572 40.238 H 15.26 c -0.552 0 -1 -0.448 -1 -1 v -7.142 c 0 -0.552 0.448 -1 1 -1 h 51.312 c 0.553 0 1 0.448 1 1 v 7.142 C 67.572 39.791 67.125 40.238 66.572 40.238 z M 16.26 38.238 h 49.312 v -5.142 H 16.26 V 38.238 z" style="stroke: none; stroke-width: 1; stroke-dasharray: none; stroke-linecap: butt; stroke-linejoin: miter; stroke-miterlimit: 10; fill: rgb(0,0,0); fill-rule: nonzero; opacity: 1;" transform=" matrix(1 0 0 1 0 0) " stroke-linecap="round" />
	<rect x="47.56" y="58.48" rx="0" ry="0" width="13.28" height="13.28" style="stroke: none; stroke-width: 1; stroke-dasharray: none; stroke-linecap: butt; stroke-linejoin: miter; stroke-miterlimit: 10; fill: rgb(246,211,101); fill-rule: nonzero; opacity: 1;" transform=" matrix(1 0 0 1 0 0) "/>
	<rect x="34.28" y="58.48" rx="0" ry="0" width="13.28" height="13.28" style="stroke: none; stroke-width: 1; stroke-dasharray: none; stroke-linecap: butt; stroke-linejoin: miter; stroke-miterlimit: 10; fill: rgb(246,211,101); fill-rule: nonzero; opacity: 1;" transform=" matrix(1 0 0 1 0 0) "/>
	<path d="M 60.833 72.754 H 47.556 c -0.553 0 -1 -0.447 -1 -1 V 58.478 c 0 -0.553 0.447 -1 1 -1 h 13.277 c 0.553 0 1 0.447 1 1 v 13.276 C 61.833 72.307 61.386 72.754 60.833 72.754 z M 48.556 70.754 h 11.277 V 59.478 H 48.556 V 70.754 z" style="stroke: none; stroke-width: 1; stroke-dasharray: none; stroke-linecap: butt; stroke-linejoin: miter; stroke-miterlimit: 10; fill: rgb(0,0,0); fill-rule: nonzero; opacity: 1;" transform=" matrix(1 0 0 1 0 0) " stroke-linecap="round" />
	<path d="M 54.194 66.115 c -0.553 0 -1 -0.447 -1 -1 v -6.638 c 0 -0.553 0.447 -1 1 -1 s 1 0.447 1 1 v 6.638 C 55.194 65.668 54.747 66.115 54.194 66.115 z" style="stroke: none; stroke-width: 1; stroke-dasharray: none; stroke-linecap: butt; stroke-linejoin: miter; stroke-miterlimit: 10; fill: rgb(0,0,0); fill-rule: nonzero; opacity: 1;" transform=" matrix(1 0 0 1 0 0) " stroke-linecap="round" />
	<path d="M 47.556 72.754 H 34.279 c -0.552 0 -1 -0.447 -1 -1 V 58.478 c 0 -0.553 0.448 -1 1 -1 h 13.277 c 0.553 0 1 0.447 1 1 v 13.276 C 48.556 72.307 48.108 72.754 47.556 72.754 z M 35.279 70.754 h 11.277 V 59.478 H 35.279 V 70.754 z" style="stroke: none; stroke-width: 1; stroke-dasharray: none; stroke-linecap: butt; stroke-linejoin: miter; stroke-miterlimit: 10; fill: rgb(0,0,0); fill-rule: nonzero; opacity: 1;" transform=" matrix(1 0 0 1 0 0) " stroke-linecap="round" />
	<path d="M 40.917 66.115 c -0.552 0 -1 -0.447 -1 -1 v -6.638 c 0 -0.553 0.448 -1 1 -1 s 1 0.447 1 1 v 6.638 C 41.917 65.668 41.47 66.115 40.917 66.115 z" style="stroke: none; stroke-width: 1; stroke-dasharray: none; stroke-linecap: butt; stroke-linejoin: miter; stroke-miterlimit: 10; fill: rgb(0,0,0); fill-rule: nonzero; opacity: 1;" transform=" matrix(1 0 0 1 0 0) " stroke-linecap="round" />
	<polygon points="60.83,54.12 60.83,71.75 19.45,71.75 19.45,83.45 62.57,83.45 82.74,83.45 83.35,83.45 83.35,71.67 75.52,54.12 " style="stroke: none; stroke-width: 1; stroke-dasharray: none; stroke-linecap: butt; stroke-linejoin: miter; stroke-miterlimit: 10; fill: rgb(241,101,69); fill-rule: nonzero; opacity: 1;" transform="  matrix(1 0 0 1 0 0) "/>
	<polyline points="78.07,59.84 67.78,59.84 67.78,67.98 81.71,67.98 " style="stroke: none; stroke-width: 1; stroke-dasharray: none; stroke-linecap: butt; stroke-linejoin: miter; stroke-miterlimit: 10; fill: rgb(101,223,239); fill-rule: nonzero; opacity: 1;" transform="  matrix(1 0 0 1 0 0) "/>
	<path d="M 83.354 84.452 H 19.451 c -0.552 0 -1 -0.447 -1 -1 V 71.754 c 0 -0.553 0.448 -1 1 -1 h 40.382 V 54.12 c 0 -0.553 0.447 -1 1 -1 h 14.685 c 0.395 0 0.752 0.232 0.913 0.592 l 7.836 17.547 c 0.058 0.129 0.087 0.268 0.087 0.408 v 11.785 C 84.354 84.005 83.906 84.452 83.354 84.452 z M 20.451 82.452 h 61.902 V 71.88 l -7.484 -16.76 H 61.833 v 16.634 c 0 0.553 -0.447 1 -1 1 H 20.451 V 82.452 z" style="stroke: none; stroke-width: 1; stroke-dasharray: none; stroke-linecap: butt; stroke-linejoin: miter; stroke-miterlimit: 10; fill: rgb(0,0,0); fill-rule: nonzero; opacity: 1;" transform=" matrix(1 0 0 1 0 0) " stroke-linecap="round" />
	<circle cx="71.679" cy="83.33900000000001" r="5.659" style="stroke: none; stroke-width: 1; stroke-dasharray: none; stroke-linecap: butt; stroke-linejoin: miter; stroke-miterlimit: 10; fill: rgb(200,202,206); fill-rule: nonzero; opacity: 1;" transform="  matrix(1 0 0 1 0 0) "/>
	<circle cx="31.628999999999998" cy="83.33900000000001" r="5.659" style="stroke: none; stroke-width: 1; stroke-dasharray: none; stroke-linecap: butt; stroke-linejoin: miter; stroke-miterlimit: 10; fill: rgb(200,202,206); fill-rule: nonzero; opacity: 1;" transform="  matrix(1 0 0 1 0 0) "/>
	<path d="M 71.684 90 c -3.672 0 -6.659 -2.987 -6.659 -6.659 s 2.987 -6.659 6.659 -6.659 s 6.659 2.987 6.659 6.659 S 75.355 90 71.684 90 z M 71.684 78.682 c -2.569 0 -4.659 2.09 -4.659 4.659 S 69.114 88 71.684 88 s 4.659 -2.09 4.659 -4.659 S 74.253 78.682 71.684 78.682 z" style="stroke: none; stroke-width: 1; stroke-dasharray: none; stroke-linecap: butt; stroke-linejoin: miter; stroke-miterlimit: 10; fill: rgb(0,0,0); fill-rule: nonzero; opacity: 1;" transform=" matrix(1 0 0 1 0 0) " stroke-linecap="round" />
	<path d="M 31.633 90 c -3.672 0 -6.659 -2.987 -6.659 -6.659 s 2.987 -6.659 6.659 -6.659 s 6.659 2.987 6.659 6.659 S 35.305 90 31.633 90 z M 31.633 78.682 c -2.569 0 -4.659 2.09 -4.659 4.659 S 29.064 88 31.633 88 s 4.659 -2.09 4.659 -4.659 S 34.202 78.682 31.633 78.682 z" style="stroke: none; stroke-width: 1; stroke-dasharray: none; stroke-linecap: butt; stroke-linejoin: miter; stroke-miterlimit: 10; fill: rgb(0,0,0); fill-rule: nonzero; opacity: 1;" transform=" matrix(1 0 0 1 0 0) " stroke-linecap="round" />
	<path d="M 81.709 68.985 H 67.78 c -0.553 0 -1 -0.447 -1 -1 V 59.84 c 0 -0.553 0.447 -1 1 -1 h 10.291 c 0.553 0 1 0.447 1 1 s -0.447 1 -1 1 H 68.78 v 6.146 h 12.929 c 0.553 0 1 0.447 1 1 S 82.262 68.985 81.709 68.985 z" style="stroke: none; stroke-width: 1; stroke-dasharray: none; stroke-linecap: butt; stroke-linejoin: miter; stroke-miterlimit: 10; fill: rgb(0,0,0); fill-rule: nonzero; opacity: 1;" transform=" matrix(1 0 0 1 0 0) " stroke-linecap="round" />
	<path d="M 71.684 84.776 c -0.791 0 -1.435 -0.644 -1.435 -1.436 s 0.644 -1.436 1.435 -1.436 c 0.792 0 1.436 0.644 1.436 1.436 S 72.476 84.776 71.684 84.776 z M 71.684 82.776 c -0.312 0 -0.564 0.253 -0.564 0.564 s 0.253 0.564 0.564 0.564 s 0.565 -0.253 0.565 -0.564 S 71.995 82.776 71.684 82.776 z" style="stroke: none; stroke-width: 1; stroke-dasharray: none; stroke-linecap: butt; stroke-linejoin: miter; stroke-miterlimit: 10; fill: rgb(0,0,0); fill-rule: nonzero; opacity: 1;" transform=" matrix(1 0 0 1 0 0) " stroke-linecap="round" />
	<path d="M 31.633 84.776 c -0.792 0 -1.436 -0.644 -1.436 -1.436 s 0.644 -1.436 1.436 -1.436 s 1.436 0.644 1.436 1.436 S 32.425 84.776 31.633 84.776 z M 31.633 82.776 c -0.311 0 -0.564 0.253 -0.564 0.564 s 0.253 0.564 0.564 0.564 s 0.564 -0.253 0.564 -0.564 S 31.944 82.776 31.633 82.776 z" style="stroke: none; stroke-width: 1; stroke-dasharray: none; stroke-linecap: butt; stroke-linejoin: miter; stroke-miterlimit: 10; fill: rgb(0,0,0); fill-rule: nonzero; opacity: 1;" transform=" matrix(1 0 0 1 0 0) " stroke-linecap="round" />
	<rect x="47.56" y="45" rx="0" ry="0" width="13.28" height="13.28" style="stroke: none; stroke-width: 1; stroke-dasharray: none; stroke-linecap: butt; stroke-linejoin: miter; stroke-miterlimit: 10; fill: rgb(246,211,101); fill-rule: nonzero; opacity: 1;" transform=" matrix(1 0 0 1 0 0) "/>
	<path d="M 60.833 59.276 H 47.556 c -0.553 0 -1 -0.447 -1 -1 V 45 c 0 -0.552 0.447 -1 1 -1 h 13.277 c 0.553 0 1 0.448 1 1 v 13.276 C 61.833 58.829 61.386 59.276 60.833 59.276 z M 48.556 57.276 h 11.277 V 46 H 48.556 V 57.276 z" style="stroke: none; stroke-width: 1; stroke-dasharray: none; stroke-linecap: butt; stroke-linejoin: miter; stroke-miterlimit: 10; fill: rgb(0,0,0); fill-rule: nonzero; opacity: 1;" transform=" matrix(1 0 0 1 0 0) " stroke-linecap="round" />
	<path d="M 54.194 52.639 c -0.553 0 -1 -0.447 -1 -1 V 45 c 0 -0.552 0.447 -1 1 -1 s 1 0.448 1 1 v 6.639 C 55.194 52.191 54.747 52.639 54.194 52.639 z" style="stroke: none; stroke-width: 1; stroke-dasharray: none; stroke-linecap: butt; stroke-linejoin: miter; stroke-miterlimit: 10; fill: rgb(0,0,0); fill-rule: nonzero; opacity: 1;" transform=" matrix(1 0 0 1 0 0) " stroke-linecap="round" />
</g>
</svg>